<?xml version="1.0" encoding="UTF-8"?>
<svg width="63px" height="57px" viewBox="0 0 63 57" version="1.1" xmlns="http://www.w3.org/2000/svg" xmlns:xlink="http://www.w3.org/1999/xlink">
    <title>noun_Gold pot_812844</title>
    <g id="6.25---Aislynn" stroke="none" stroke-width="1" fill="none" fill-rule="evenodd">
        <g id="Following-BG-3" transform="translate(-21.000000, -42.000000)" fill="#000000" fill-rule="nonzero">
            <g id="noun_Gold-pot_812844" transform="translate(52.500000, 70.500000) scale(-1, 1) translate(-52.500000, -70.500000) translate(21.000000, 42.000000)">
                <path d="M32.5396089,32.2386692 L32.5421244,32.2386692 C32.6383423,32.2697329 32.7150651,32.2936281 32.7760661,32.3097573 C33.5313457,32.5200348 34.2413463,32.5618514 34.7878392,32.4561152 C34.9670687,32.4208699 35.1500715,32.3683005 35.3085482,32.279291 L35.309806,32.279291 C35.4255191,32.2129819 35.5324279,32.1245697 35.5808513,31.9985227 L35.5921711,31.9662642 L35.5934289,31.9668616 C35.6852447,31.6245633 35.3412497,31.2243192 35.1400095,31.0218076 C34.7016832,30.5827338 34.0206109,30.1795028 33.201186,29.9160585 L33.2018149,29.9154611 C33.1169167,29.8879817 33.039565,29.8646839 32.968502,29.8455678 C32.2125935,29.6352902 31.502593,29.5934737 30.9561,29.6992098 C30.5391555,29.779856 30.2454706,29.9369668 30.162459,30.156205 L30.1517681,30.1890608 L30.1505104,30.1884635 C29.879465,31.1717498 32.4408754,32.2070081 32.5396089,32.2386692 Z" id="Path"></path>
                <path d="M28.6129412,30.5995446 C28.4113366,30.7832638 28.3043478,30.9642944 28.3043478,31.140844 C28.3043478,31.4733309 28.6813558,31.8237415 29.3662294,32.1714636 C29.6136864,32.2969304 29.8611434,32.4044733 30.1151507,32.5057429 L30.129707,32.5120162 L30.1304348,32.5120162 C29.5350824,32.013734 28.9761207,31.3774384 28.6129412,30.5995446 Z" id="Path"></path>
                <path d="M36.1664386,28.8647554 L36.1734563,28.8704292 L36.1787195,28.8744009 L36.1810587,28.876103 L36.2383697,28.9226284 L36.2401241,28.9237632 C36.4816489,29.1450424 36.6301895,29.2772426 36.8044616,29.492848 L36.8079705,29.497387 C36.8588486,29.5093021 36.9144051,29.5212171 36.9664528,29.53143 L36.9734705,29.5331321 C37.5266967,29.6403675 38.0986367,29.695971 38.6600502,29.5745511 C38.9898806,29.5030609 39.211522,29.3946908 39.2512888,29.2647601 L39.2542128,29.2528451 L39.2547976,29.2528451 C39.3776068,28.6985122 37.6021367,27.9977947 37.1301984,27.8843181 L37.1301984,27.8831834 L37.026103,27.8587859 L37.0255182,27.8599207 C36.3436347,27.7078621 35.7114597,27.6942449 35.2371823,27.7975086 C34.9775285,27.8536795 34.7851275,27.9325457 34.6956522,28.0272986 C35.2535568,28.2508473 35.7500569,28.5362408 36.1529881,28.8545425 L36.1600057,28.8602163 L36.1664386,28.8647554 Z" id="Path"></path>
                <path d="M44.0341001,32.9262612 C44.0776061,32.9444031 44.1217918,32.965673 44.1659776,32.9819382 L44.1727755,32.9844405 L44.1788935,32.9875684 L44.1856913,32.9900708 C44.9898726,33.3160003 45.9979884,33.4486242 46.8701479,33.4661406 C47.0509697,33.4698941 47.2311118,33.468643 47.4105741,33.4623871 C48.297009,33.4311079 49.067881,33.2822188 49.6117061,33.0557572 C49.9849061,32.8999866 50.2119531,32.7454672 50.2173913,32.6228527 L50.2173913,32.6147201 C50.2105935,32.4420587 49.8910963,32.2287344 49.3799007,32.0254194 C48.7014789,31.7551669 47.7586221,31.5781265 46.7151577,31.5574822 C45.9361283,31.5424682 44.7886574,31.622543 43.9735995,31.9684912 L43.9674815,31.9709936 C43.9776782,32.0986128 43.9817569,32.1974552 43.9668017,32.3275768 L43.9634028,32.351349 L43.9634028,32.3519746 L43.9600039,32.3757468 L43.956605,32.399519 L43.9457285,32.4589495 C43.9205766,32.5853176 43.8804695,32.7079322 43.826087,32.8280444 L43.8267667,32.8280444 L43.8315252,32.8305467 L43.8315252,32.8311723 C43.8940651,32.861826 43.9572848,32.8937308 44.021864,32.9218821 L44.027982,32.9243844 L44.027982,32.92501 L44.0341001,32.9262612 Z" id="Path"></path>
                <path d="M38.1373089,33.1728538 C38.6706716,33.376496 39.4130011,33.4898987 40.2342736,33.4648053 L40.2369271,33.4648053 L40.2462145,33.4643227 C41.0608531,33.4377817 41.7799641,33.2795006 42.282811,33.0449743 L42.2848012,33.0440091 L42.2867913,33.043044 L42.2887815,33.0420789 L42.2907717,33.0411137 L42.2927618,33.0401486 L42.294752,33.0391835 L42.2967421,33.0387009 L42.2987323,33.0377358 L42.3007225,33.0367707 L42.3020492,33.0358055 L42.3027126,33.0358055 L42.3040394,33.0348404 L42.3060296,33.0338753 L42.3080197,33.0329101 L42.3100099,33.0324276 L42.312,33.0314624 L42.3139902,33.0304973 L42.3159804,33.0295322 L42.3173071,33.0285671 L42.3192973,33.0276019 L42.3199607,33.0276019 L42.3212874,33.0266368 L42.3232776,33.0256717 L42.3252678,33.0247065 L42.3265945,33.0237414 L42.3285847,33.0232589 L42.3305749,33.0222937 L42.332565,33.0213286 L42.3345552,33.0203635 L42.3365453,33.0193983 L42.3378721,33.0184332 L42.3385355,33.0184332 L42.3398623,33.0174681 L42.3418524,33.016503 L42.3438426,33.0160204 L42.3451694,33.0150553 L42.3471595,33.0140901 L42.3491497,33.013125 L42.3511398,33.0121599 L42.35313,33.0111947 L42.3544568,33.0102296 L42.3564469,33.009747 L42.3564469,33.0092645 L42.3584371,33.0087819 L42.3597639,33.0078168 L42.361754,33.0063691 L42.3637442,33.0058865 L42.3657343,33.0049214 L42.3677245,33.0039563 L42.3690513,33.0029911 L42.3710414,33.002026 L42.3730316,33.0010609 L42.373695,33.0005783 L42.3743584,33.0000958 L42.3763485,32.9991306 L42.3783387,32.9981655 L42.3796655,32.9976829 L42.3816556,32.9967178 L42.3836458,32.9957527 L42.3856359,32.9947876 L42.3869627,32.9938224 L42.3889529,32.9928573 L42.390943,32.9918922 L42.3916064,32.9914096 L42.3922698,32.990927 L42.39426,32.9899619 L42.3962501,32.9889968 L42.3982403,32.9880316 L42.399567,32.9870665 L42.4015572,32.9861014 C42.7226363,32.8172038 42.9150183,32.6246606 42.9130435,32.4388733 L42.9123648,32.4369431 L42.9123648,32.4258441 C42.9037408,32.2801096 42.7743804,32.136788 42.557453,32.0098735 L42.5428585,32.0011874 C42.5183132,31.987193 42.4891242,31.9736812 42.4625888,31.9601694 C42.4639155,31.9596868 42.4645789,31.9592043 42.4659057,31.9587217 C42.4506478,31.9514833 42.4280927,31.941832 42.4088545,31.9326632 C42.3922698,31.9244596 42.3783387,31.916256 42.361754,31.908535 L42.3557835,31.908535 C42.0891022,31.7903067 41.5437985,31.5774958 40.6037798,31.5557804 C40.4120611,31.7044103 39.635899,31.9471402 39.2537883,32.0306238 L37.8520527,32.0856362 L37.8434287,32.0904618 L37.8394484,32.0928746 L37.835468,32.0952875 L37.826844,32.1005957 L37.8168932,32.106869 L37.8129129,32.1097644 L37.8089326,32.1121772 L37.8009719,32.1170029 L37.7936747,32.1218285 L37.789031,32.1247239 L37.7857141,32.1271367 L37.7777534,32.1319624 L37.77709,32.1319624 L37.7704562,32.136788 L37.7658125,32.1396834 L37.7624955,32.1420962 L37.7551983,32.1469218 L37.7545349,32.1474044 L37.747901,32.1522301 L37.7432573,32.1551254 L37.7406038,32.1570557 L37.7333065,32.1623639 L37.7326431,32.1628465 L37.7260093,32.1671896 L37.7213656,32.1705675 L37.718712,32.1724978 L37.7120782,32.1773234 L37.7107514,32.1782885 L37.7047809,32.1826316 L37.7001372,32.1860096 L37.698147,32.1874573 L37.6915132,32.1927655 L37.6901864,32.1937306 L37.6848793,32.1980737 L37.6802356,32.2014516 L37.6782454,32.2028993 L37.6716116,32.2082075 L37.6696214,32.2091727 L37.6649777,32.2130332 L37.660334,32.2168937 L37.6590072,32.2183414 L37.6523734,32.2236496 L37.6510466,32.2246147 L37.6457395,32.2284752 L37.6410958,32.2328183 L37.639769,32.2337834 L37.6377789,32.2357137 L37.6357887,32.2371614 L37.6318084,32.2410219 L37.6271647,32.2448824 L37.6258379,32.2458476 L37.6198674,32.2511558 L37.6178773,32.2526035 L37.613897,32.256464 L37.6092533,32.2603245 L37.6085899,32.2612896 L37.6026194,32.2665978 L37.6006292,32.2685281 L37.5973123,32.271906 L37.5926686,32.2762491 L37.5920052,32.2772142 L37.5774107,32.2916912 L37.5767473,32.2921737 L37.5721036,32.2974819 L37.5694501,32.2998948 L37.5667965,32.3027902 L37.543578,32.3288486 L37.5415878,32.3307789 L37.5389343,32.3336743 L37.534954,32.3389825 L37.5303103,32.3442907 L37.5283201,32.3471861 L37.5263299,32.3495989 L37.5223496,32.3549071 L37.5183693,32.3602153 L37.5157158,32.3631107 L37.514389,32.3655235 L37.5064283,32.3756574 L37.5044382,32.3785528 L37.502448,32.3809656 L37.4991311,32.3862738 L37.4984677,32.3862738 L37.4958142,32.391582 L37.4931606,32.3944774 L37.4918338,32.3968902 L37.4885169,32.4021984 L37.4885169,32.402681 L37.4852,32.4075066 L37.4838732,32.410402 L37.4852,32.410402 C37.4606547,32.45142 37.4447334,32.492438 37.4387629,32.5329734 L37.4380995,32.5339385 L37.4380995,32.5344211 L37.4380995,32.5358688 L37.4380995,32.5373165 L37.4374362,32.5392467 L37.4374362,32.5406944 L37.4361094,32.5498631 L37.4361094,32.5513108 L37.4361094,32.5527585 L37.435446,32.5542062 L37.435446,32.5571016 L37.435446,32.5575842 L37.435446,32.5590319 L37.435446,32.5604796 L37.4347826,32.5619273 L37.4347826,32.563375 L37.4347826,32.5648226 L37.4347826,32.5657878 L37.4347826,32.5662703 L37.4347826,32.5682006 L37.4347826,32.5696483 L37.4347826,32.571096 L37.4347826,32.5725437 L37.4347826,32.5735088 L37.4347826,32.5739914 L37.4347826,32.5754391 L37.4347826,32.5768868 L37.4347826,32.578817 L37.4347826,32.5802647 L37.4347826,32.5817124 L37.4347826,32.5836427 L37.4347826,32.5947416 C37.447387,32.8056223 37.7160585,33.0116773 38.1373089,33.1728538 Z" id="Path"></path>
                <path d="M51.4415522,29.8589443 L51.4388904,29.8606238 L51.4242506,29.8684616 L51.4235851,29.8684616 C50.8599499,30.1741335 51.2086451,30.6460775 51.6365288,31.0301268 C52.1302919,31.473519 52.9082017,31.8911587 53.8524738,32.177796 L53.8757645,32.1845141 L53.8770954,32.1850739 L53.8770954,32.1856338 C54.8153784,32.4672326 55.7223854,32.5624052 56.4324194,32.4873868 C56.9960546,32.4274841 57.3946586,32.2735285 57.4951414,32.0395159 C57.5956242,31.8043837 57.4059712,31.4712797 57.0180145,31.12306 C56.5242513,30.6796678 55.7456761,30.2620281 54.801404,29.9753907 L54.8007386,29.9753907 C54.3202844,29.8292729 53.8484811,29.7329806 53.406623,29.683155 C52.8396605,29.6198932 51.9785695,29.6025382 51.4415522,29.8589443 Z" id="Path"></path>
                <path d="M48.2646444,29.4738407 C48.3496667,29.4980504 48.4376007,29.5198392 48.5296112,29.539207 L48.5336876,29.5398122 C48.7509021,29.5852055 48.9739401,29.6154677 49.1946487,29.631204 L49.196978,29.631204 C49.2616183,29.636046 49.3245115,29.6396774 49.3891518,29.6433089 L49.3891518,29.6408879 L49.3891518,29.6390722 L49.3891518,29.6372564 L49.3891518,29.6342302 L49.3891518,29.6324145 L49.3891518,29.6305988 L49.3891518,29.6299935 L49.3891518,29.6275725 C49.3891518,29.0489596 49.7350644,28.5199766 50.2073459,28.2197758 C50.5520938,28.0055195 50.924212,27.8977861 51.3126358,27.840288 L51.3132182,27.840288 C51.4879215,27.8166835 51.6556368,27.8033681 51.8315048,27.7997367 C51.8978921,27.7991314 51.9648617,27.7985262 52.0318314,27.8003419 L52.0434783,27.8003419 C51.5117977,27.7150026 50.8776245,27.7053187 50.2055988,27.7876318 C49.7601052,27.8414985 49.3262585,27.9353112 48.8976529,28.0720963 L48.8964883,28.0720963 L48.884259,28.076333 L48.8720298,28.0805697 C48.5016586,28.2040394 48.1836985,28.3535346 47.934455,28.5157399 C47.8249743,28.5877639 47.5134199,28.8008097 47.481391,28.9678569 L47.481391,28.9696727 L47.4808086,28.9714884 L47.4802263,28.9733041 L47.4802263,28.9739094 L47.4802263,28.9745146 C47.4784792,28.9848038 47.4778969,28.9938824 47.4784792,29.0035663 L47.4802263,29.0138555 C47.5075965,29.1778765 47.8057569,29.3425028 48.2646444,29.4738407 Z" id="Path"></path>
                <path d="M15.6959768,21.6802927 C15.6230247,21.6108576 15.5454301,21.5446077 15.4638564,21.4834539 L15.4452868,21.4700765 L15.4439604,21.4688025 L15.4240644,21.454151 L15.4214116,21.45224 L15.4035051,21.4394996 L15.3968731,21.4350405 L15.3829459,21.4248482 L15.3723347,21.417204 L15.3617235,21.4101968 L15.3477963,21.4000045 L15.3411643,21.3955453 L15.3225946,21.383442 L15.3199418,21.3815309 L15.2987194,21.3681535 L15.297393,21.3675165 L15.277497,21.3547761 L15.2721914,21.350954 L15.2562745,21.3407617 L15.2463265,21.3350286 L15.2337257,21.3280213 L15.2197985,21.3216512 L15.2118401,21.317192 L15.1939336,21.3063627 L15.1899544,21.3044517 L15.1680688,21.2917113 L15.1674056,21.2917113 L15.14552,21.2796079 L15.1408776,21.2764228 L15.1236343,21.2668676 L15.1143495,21.2624084 L15.1004223,21.2547642 L15.0864951,21.247757 L15.0772103,21.2432979 L15.0593038,21.2343796 L15.0546614,21.2318315 L15.0321126,21.2210022 L15.0314494,21.2203652 L15.0089006,21.2088989 L15.0049214,21.2076248 L14.9856885,21.1980695 L14.9770669,21.1942474 L14.9624765,21.1878772 L14.9492125,21.1821441 L14.9379381,21.1770479 L14.9213581,21.1694037 L14.914726,21.1668556 L14.8928404,21.1579374 L14.8908508,21.1566633 L14.8669756,21.1471081 L14.864986,21.146471 L14.8431003,21.1375528 L14.8358051,21.1350047 L14.8192251,21.1286345 L14.8072875,21.1241754 L14.7946867,21.1190792 L14.7781066,21.1133461 L14.7708114,21.1152571 L14.7502522,21.1082499 L14.746273,21.1069759 L14.7223978,21.0986946 L14.7204082,21.0980576 L14.6971961,21.0904134 L14.6912273,21.0885023 L14.6726577,21.0827692 L14.6613833,21.0795841 L14.6474561,21.0751249 L14.6315392,21.0706658 L14.6222544,21.0681177 L14.6016952,21.0617476 L14.5970528,21.0604735 L14.5718512,21.0541033 L14.5466495,21.0470961 L14.5413439,21.0458221 L14.5214479,21.0407259 L14.5114999,21.0388149 L14.495583,21.0349928 L14.4809926,21.0311707 L14.4703814,21.0292596 L14.4504854,21.0248005 L14.4445166,21.0235264 L14.4199781,21.0184303 L14.4186517,21.0184303 L14.3927869,21.0126971 L14.3888077,21.0120601 L14.3669221,21.008238 L14.3576373,21.006964 L14.3410572,21.0037789 L14.32713,21.0012308 L14.3145292,20.9993197 L14.2959596,20.9967717 L14.2880012,20.9954976 L14.2647891,20.9916755 L14.2621363,20.9916755 L14.2356083,20.9884904 L14.2329555,20.9878534 L14.2090802,20.9846683 L14.2011218,20.9840313 L14.1825522,20.9821202 L14.1692882,20.9808462 L14.155361,20.9795721 L14.1381177,20.9776611 L14.1288329,20.9770241 L14.1056209,20.975113 L14.1016417,20.975113 L14.0751136,20.973202 L14.0737872,20.9725649 L14.0479224,20.9712909 L14.0412904,20.9712909 L14.0207312,20.9700169 L14.0087936,20.9693799 L13.9935399,20.9693799 L13.9769599,20.9687428 L13.9663487,20.9681058 L13.9444631,20.9681058 L13.9391575,20.9681058 L13.911303,20.9681058 L13.8051909,20.9681058 L13.6944363,20.9763871 C13.350235,21.0025048 13.0471522,20.7719041 12.9894537,20.4521207 L12.9775161,20.4081664 L12.9715473,20.3871448 L12.9649153,20.3648492 L12.9615993,20.3546569 L12.9523144,20.3221689 L12.9516512,20.3215319 L12.9423664,20.289681 L12.9383872,20.2782146 L12.9317552,20.25783 L12.92446,20.2348973 L12.921144,20.2253421 L12.9105328,20.1934911 L12.9098696,20.1922171 L12.8992584,20.1616402 L12.8952792,20.1488998 L12.887984,20.1297893 L12.8800255,20.1068566 L12.8767095,20.0985754 L12.8647719,20.0667244 L12.8641087,20.0641764 L12.8528343,20.0348735 L12.8475287,20.0221331 L12.8402335,20.0036596 L12.8309487,19.9807269 L12.8276327,19.9724457 L12.8150319,19.9412318 L12.8137055,19.9386837 L12.8017678,19.9106549 L12.8011046,19.9010996 L12.7931462,19.8839001 L12.782535,19.8603304 L12.7798822,19.8533232 L12.765955,19.8227463 L12.7646286,19.8195612 L12.7520278,19.7921694 L12.7453958,19.778792 L12.7374373,19.7628665 L12.7261629,19.7386598 L12.7228469,19.7322896 L12.7089197,19.7023498 L12.7069301,19.6978906 L12.6943293,19.6724099 L12.6863709,19.6583955 L12.6784125,19.643107 L12.6658116,19.6189003 L12.6631588,19.6131671 L12.6479052,19.5838643 L12.6459156,19.5787681 L12.6319884,19.5539244 L12.6167348,19.5246216 L12.6028076,19.5004148 L12.6001547,19.4953187 L12.5842379,19.4666529 L12.5683211,19.43735 L12.5590363,19.4226986 L12.5510779,19.4093212 L12.5364875,19.3844775 L12.5344979,19.3806553 L12.5172546,19.3526265 L12.5159282,19.3456193 L12.502001,19.3233237 L12.4927162,19.3080352 L12.4840946,19.2952948 L12.482105,19.2914727 L12.4668514,19.267266 L12.4489449,19.2392372 L12.4443025,19.23223 L12.4303753,19.2112084 L12.4191009,19.1952829 L12.4111425,19.1831796 L12.343496,19.0857157 L12.3355376,19.0742494 L12.3176311,19.0494056 L12.3163047,19.0474946 L12.2964087,19.0207398 L12.2911031,19.0130956 L12.2771759,18.993985 L12.2639119,18.9780596 L12.2559535,18.9678673 C12.1956022,18.8882399 12.1319349,18.8111607 12.066278,18.7366295 L12.066278,18.7359925 L12.0437292,18.7117858 L11.9760827,18.6378916 L11.9754195,18.6372546 L11.9535338,18.6136849 C11.7864072,18.4385048 11.6040269,18.276065 11.4090459,18.1282767 C10.6490176,17.5549599 9.6887026,17.2122439 8.64482431,17.2122439 C8.23894534,17.2122439 7.84566717,17.2638424 7.47162184,17.3606692 L7.45968423,17.3632173 L7.45570502,17.3644913 L7.4397882,17.3689505 L7.42652418,17.3721355 L7.42387137,17.3734096 L7.40928095,17.3772317 L7.39469053,17.3816908 L7.39402733,17.3823278 L7.37811051,17.38615 L7.36285689,17.3912461 L7.36219369,17.3912461 L7.34760327,17.3957052 L7.31643282,17.4052605 L7.3011792,17.4097196 L7.29719999,17.4109937 L7.28526238,17.4148158 L7.27000875,17.4192749 L7.26403995,17.421186 L7.25475513,17.4243711 L7.23950151,17.4294672 L7.2315431,17.4320153 L7.22358469,17.4345634 L7.20833107,17.4396595 L7.19904625,17.4422076 L7.19241424,17.4447557 L7.17782382,17.4498518 L7.16654941,17.4536739 L7.161907,17.454948 L7.14665338,17.4600441 L7.13405256,17.4645032 L7.13139976,17.4657773 L7.11680934,17.4708734 L7.08563889,17.4817028 L7.07104847,17.4874359 L7.07038527,17.4874359 L7.05645805,17.4931691 L7.04186763,17.4989023 L7.03921483,17.4995393 L7.02595081,17.5046354 L7.01136039,17.5103686 L7.00738118,17.5116426 L6.99610676,17.5161018 L6.98151634,17.5218349 L6.97554754,17.523746 L6.96559952,17.5275681 L6.9516723,17.5339383 L6.94371389,17.5364864 L6.93575548,17.5396715 L6.92116506,17.5460416 L6.91254345,17.5492267 L6.90591144,17.5517748 L6.89132102,17.558145 L6.881373,17.5619671 L6.87673059,17.5645152 L6.86214017,17.5708854 L6.85020256,17.5753445 L6.84688655,17.5766185 L6.83229613,17.5836257 L6.81903211,17.5893589 L6.81770571,17.5893589 L6.80311529,17.5963661 L6.78918807,17.6027363 L6.78852487,17.6027363 L6.77459765,17.6091065 L6.76000723,17.6161137 L6.75868083,17.6167507 L6.74541681,17.6224839 L6.73148959,17.6294911 L6.72817358,17.6307651 L6.71623597,17.6358613 L6.70230875,17.6428685 L6.69700314,17.6454165 L6.68771833,17.6498757 L6.67379111,17.6568829 L6.6671591,17.660068 L6.65853748,17.6638901 L6.64461026,17.6708973 L6.63665185,17.6747194 L6.63001984,17.6779045 L6.61609262,17.6849117 L6.60614461,17.6893708 L6.6015022,17.6919189 L6.58757498,17.6989261 L6.57630057,17.7046593 L6.57298456,17.7065703 L6.55905734,17.7135775 L6.54645652,17.7199477 L6.54513012,17.7212218 L6.5312029,17.728229 L6.51727568,17.7358732 C5.86203315,18.0766782 5.30361795,18.5722787 4.89641257,19.1704392 C4.73193874,19.4112322 4.42686631,19.5099701 4.15362752,19.4322539 C4.03690415,19.4054991 3.91354877,19.3844775 3.78488779,19.369826 C3.6542372,19.3545376 3.51695461,19.3468934 3.37502961,19.3468934 L3.35115437,19.3468934 L3.32926874,19.3468934 L3.32794234,19.3468934 L3.30870951,19.3468934 L3.28748708,19.3475304 L3.28483428,19.3475304 L3.26692785,19.3481674 L3.24504222,19.3405232 L3.24172622,19.3405232 L3.22448299,19.3417972 L3.20326056,19.3424342 L3.19795495,19.3424342 L3.18270133,19.3437083 L3.1621421,19.3443453 L3.15551009,19.3449823 L3.14091967,19.3462563 L3.12036044,19.3475304 L3.11306523,19.3481674 L3.09913801,19.3488044 L3.07857878,19.3507155 L3.06995717,19.3513525 L3.05735635,19.3526265 L3.03679713,19.3545376 L3.02684911,19.3558116 L3.0155747,19.3564486 L2.99501547,19.3589967 L2.98440425,19.3596337 L2.97445624,19.3609078 L2.95389701,19.3634558 L2.94195939,19.3647299 L2.93333778,19.3660039 L2.91277855,19.368552 L2.89951453,19.370463 L2.89288252,19.3711001 L2.87232329,19.3736481 L2.85839607,19.3761962 L2.85242726,19.3768332 L2.83253123,19.3800183 L2.81727761,19.3825664 L2.81197201,19.3832034 L2.79207598,19.3870255 L2.77615915,19.3895736 L2.77217995,19.3902106 L2.75228392,19.3933957 L2.73371429,19.3965808 L2.73106149,19.3972178 L2.71050226,19.4010399 L2.69259584,19.404225 L2.69126943,19.4048621 L2.6713734,19.4086842 L2.65147738,19.4131433 L2.59178929,19.4265207 L2.57189326,19.4309798 L2.56990366,19.4316168 L2.55266044,19.436076 L2.53342761,19.4405351 L2.5301116,19.4418091 L2.51353158,19.4456312 L2.49429875,19.4507274 L2.48832994,19.4507274 L2.47307632,19.4551865 L2.44853789,19.4615567 L2.43461067,19.4653788 L2.40874583,19.472386 L2.39548181,19.4762081 L2.37624898,19.4819413 L2.36829057,19.4844894 L2.35635296,19.4876745 L2.32916172,19.4965927 L2.3178873,19.4997778 L2.25024081,19.5220735 L2.24294559,19.5246216 L2.22371277,19.5309917 L2.21177515,19.5354509 L2.18591031,19.5443691 L2.1733095,19.5494653 L2.14877106,19.5583835 L2.13484384,19.5634797 L2.13020143,19.5653908 L2.11163181,19.572398 L2.09704139,19.5781311 L2.09372538,19.5800422 C1.67657199,19.744393 1.30120025,19.9870971 0.987506207,20.2877699 C0.377361337,20.8738271 0,21.6834778 0,22.579126 C0,23.4735002 0.377361337,24.2844249 0.987506207,24.8704821 C1.59765108,25.4559022 2.44057948,25.8183658 3.37304,25.8183658 L13.9119662,25.8183658 C14.6089904,25.8183658 15.2403577,25.5469959 15.69664,25.109364 C16.1529222,24.6710952 16.4347826,24.0640164 16.4347826,23.3951469 C16.4341194,22.7243662 16.152259,22.1179245 15.6959768,21.6802927 L15.6959768,21.6802927 Z" id="Path"></path>
                <path d="M39.3475954,25.8936137 C39.3475954,26.6515555 39.2759285,27.3931094 39.1387967,28.1121299 C39.4295989,28.2719122 39.6900805,28.4467168 39.9133504,28.6297154 L39.9808827,28.6870731 C40.0236071,28.6447376 40.0663316,28.603085 40.1111234,28.5614323 C40.8071192,27.9202545 41.8449109,27.3514567 43.0577352,27.007993 C43.306502,26.9376615 43.5552688,26.8796209 43.7992119,26.8318228 C43.8171286,26.5218177 43.826087,26.2083986 43.826087,25.8936137 C43.826087,16.8741062 36.4471537,9.5623577 27.3447695,9.5623577 C21.0332594,9.5623577 15.5514314,13.0782517 12.7826087,18.2411328 C13.5199507,18.908941 14.0898403,19.7556507 14.4226779,20.7143447 C15.0986896,20.7525832 15.7305987,20.9574323 16.2763696,21.2886051 C18.0921605,17.0072582 22.3639206,14.0007557 27.3447695,14.0007557 C33.974646,14.0007557 39.3475954,19.3254676 39.3475954,25.8936137 Z" id="Path"></path>
                <path d="M44.2431569,30.5847412 L44.248896,30.5902925 L44.2517656,30.5933766 L44.2575048,30.5995446 L44.2661135,30.5976942 L44.2666874,30.5976942 L44.2752961,30.5964606 L44.2758701,30.5964606 L44.2844788,30.5939934 C44.4497663,30.5619193 44.6259583,30.517509 44.7866545,30.4681642 L44.7958371,30.465697 L44.7958371,30.4650802 L44.8050198,30.4626129 L44.8142024,30.4601457 L44.8233851,30.4570616 L44.8262546,30.4564448 L44.8285503,30.4552112 L44.8314199,30.4545944 L44.8331416,30.4539776 L44.8337155,30.4539776 C45.2727606,30.3182795 45.6647446,30.1492737 46.053859,29.9198205 L46.0555808,29.9192037 L46.0710765,29.9093347 L46.0659113,29.901933 L46.0613199,29.8945313 L46.0561547,29.8865128 C45.5711964,29.105015 45.9844153,28.3444888 46.5416869,27.8559756 L46.5445564,27.8535084 L46.5652174,27.8356209 C46.5158607,27.8226679 46.4653562,27.8103317 46.412556,27.7992292 C45.8483974,27.6801849 45.1235427,27.7134926 44.3556443,27.9232079 L44.3533486,27.9238247 L44.3499051,27.9244415 L44.3470355,27.9250583 L44.344166,27.9262919 L44.3412964,27.9269087 L44.337279,27.9281424 L44.3344094,27.929376 L44.3315398,27.9299928 L44.3286702,27.9306096 L44.3275224,27.9312264 L44.3258007,27.9318432 L44.3229311,27.93246 L44.3200615,27.9330768 L44.316618,27.9336936 L44.3143224,27.9349273 L44.3108789,27.9355441 L44.3080093,27.9361609 L44.3051397,27.9373945 L44.3022701,27.9380113 L44.2994006,27.9392449 L44.296531,27.9398617 L44.2936614,27.9404785 L44.2907918,27.9410954 L44.2879223,27.942329 L44.2850527,27.9429458 L44.2821831,27.9435626 L44.2793135,27.9447962 L44.2758701,27.945413 L44.2730005,27.9460298 L44.2701309,27.9472635 L44.2672613,27.9478803 L44.2643918,27.9484971 L44.2615222,27.9497307 L44.2586526,27.9503475 L44.255783,27.9515811 L44.2529135,27.9521979 L44.2500439,27.9528147 L44.2477482,27.9534315 L44.2466004,27.9540484 L44.2437308,27.9546652 L44.2408612,27.9558988 L44.2379917,27.9565156 L44.2351221,27.9571324 L44.2322525,27.958366 L44.2293829,27.9589828 L44.2265134,27.9595996 L44.2236438,27.9608333 L44.2207742,27.9614501 L44.2179046,27.9626837 L44.2144611,27.9633005 L44.2115916,27.9645341 L44.208722,27.9651509 L44.2110176,27.9651509 L44.208722,27.9657677 L44.2058524,27.9663845 L44.2029828,27.9670014 L44.2001133,27.968235 L44.1972437,27.9688518 L44.1943741,27.9700854 L44.1915045,27.9707022 L44.188635,27.9719358 L44.1851915,27.9725526 L44.1823219,27.9731695 L44.1794523,27.9744031 L44.1765827,27.9750199 L44.1737132,27.9762535 L44.1708436,27.9768703 C43.3352232,28.2334631 42.6367685,28.6424078 42.1828017,29.0963797 C41.8998615,29.3788785 42.0203837,29.344954 42.0565404,29.6453402 C42.9868567,29.8476538 43.6227547,29.9568291 44.2385656,30.5816572 L44.2431569,30.5847412 Z" id="Path"></path>
                <path d="M5.16986652,18.0274805 L5.28171077,18.0411911 C5.78738236,17.4098506 6.42862274,16.8829718 7.16340558,16.5003808 C7.85073935,16.1419465 8.6180587,15.910825 9.43350498,15.8383547 C12.8247583,9.09208654 19.9997365,4.4396229 28.3040027,4.4396229 C39.8781882,4.4396229 49.2609042,13.476867 49.2609042,24.6248907 C49.2609042,25.0257625 49.2480252,25.4240228 49.2243006,25.8183658 C49.4351101,25.7680936 49.6533758,25.7230445 49.8777422,25.6845242 C50.0682163,25.6512271 50.2729252,25.6225001 50.4878017,25.5983433 C51.6936861,25.4612373 52.8358532,25.5363192 53.705527,25.7680936 C53.7509425,25.7804984 53.7956802,25.7929033 53.8404179,25.8066139 C53.8593976,25.4148824 53.8695652,25.0211923 53.8695652,24.6248907 C53.8695652,11.0252812 42.4228144,0 28.3033249,0 C16.5366317,0 6.62723102,7.65769661 3.65217391,18.0810171 C3.955848,18.0229103 4.2703676,17.9922247 4.59234347,17.9922247 C4.78485116,17.9935304 4.97803668,18.0052824 5.16986652,18.0274805 Z" id="Path"></path>
                <path d="M62.3966385,35.3551432 C62.3235789,35.25897 62.2491538,35.1716014 62.1760943,35.0937146 C61.9610125,34.8654726 61.6995003,34.6853171 61.3983858,34.5566347 C61.11161,34.4326932 60.7947911,34.3595473 60.4561226,34.3385518 C60.1188197,34.3175562 59.79449,34.3493882 59.4913271,34.4333704 C59.1799706,34.5193845 58.8911464,34.6609352 58.6344139,34.8539589 L57.7617963,35.5122713 C57.7119519,34.9718049 57.6832743,34.4306613 57.6825915,33.890195 C57.6825915,33.7493215 57.6846399,33.6091254 57.6880539,33.468252 C56.908297,33.7879263 55.9455499,34.066964 54.8305385,34.2985925 C51.9784855,34.8898545 48.0530718,35.2562609 43.7323173,35.2562609 C39.41088,35.2562609 35.4861492,34.8898545 32.6334134,34.2985925 C31.6235531,34.0879596 30.7365967,33.8393993 29.9991733,33.5562979 C30.0019045,33.6680484 30.0032701,33.7791217 30.0032701,33.890195 C30.0039529,34.3331336 29.9855174,34.7767494 29.9513774,35.219688 C29.942501,35.3260204 29.9308934,35.4303209 29.9138234,35.531235 L29.016625,34.8539589 C28.7598925,34.6609352 28.4717511,34.5193845 28.1603946,34.4333704 C27.8572317,34.3493882 27.5322192,34.3175562 27.1949163,34.3385518 C26.8562478,34.3595473 26.5401117,34.4333704 26.2526531,34.5566347 C25.9529042,34.6853171 25.6907092,34.8654726 25.4749446,35.0937146 C25.4025679,35.1709241 25.3281428,35.2582927 25.2544004,35.3551432 C24.7941936,35.9558871 24.5975474,36.6473861 24.6651446,37.3307577 C24.7320589,38.0080338 25.0563886,38.6670234 25.6388165,39.2074898 C25.7316772,39.2935039 25.8300003,39.3761315 25.9337858,39.4540183 L27.7705162,40.8397252 C27.6701446,41.4038962 27.6182519,41.9802582 27.6182519,42.5654248 C27.6182519,46.745573 30.2490779,50.4475642 34.2919331,52.7245665 L33.2793416,54.4651662 L33.277976,54.467198 C33.267734,54.4814208 33.2588576,54.4969982 33.2499812,54.5118982 C33.1250289,54.7259175 32.9222375,54.8708546 32.6948653,54.9311321 C32.4688587,54.9914097 32.2196369,54.9663505 32.0018239,54.8417317 C31.8864308,54.7753586 31.7881077,54.6859582 31.7129998,54.5803031 C31.6365263,54.4732935 31.5839507,54.3507065 31.5593699,54.2233786 C31.49109,53.8569722 31.1367171,53.6145074 30.7673226,53.6808804 C30.3979282,53.748608 30.1528032,54.1001143 30.2204003,54.4665207 C30.2811695,54.7929678 30.4115842,55.0970648 30.5979884,55.3578161 C30.7857582,55.6219538 31.0308832,55.8461322 31.3190245,56.0113876 C31.8645813,56.3236118 32.4852459,56.3872758 33.0471898,56.2375978 C33.6084509,56.088597 34.1137224,55.7248998 34.4284929,55.1830789 L34.4298585,55.1803698 C34.4394177,55.166147 34.4489769,55.1512469 34.4578533,55.1363468 L35.5018536,53.3435969 C37.910087,54.4583934 40.7245861,55.1004512 43.7323173,55.1004512 C46.8192533,55.1004512 49.7040807,54.4245296 52.1553305,53.2528419 L53.3133583,55.2420019 L53.3283799,55.2670611 C53.3434014,55.296184 53.361837,55.3246296 53.3816382,55.3523979 C53.6991399,55.8576459 54.1859759,56.1983158 54.7240218,56.341221 C55.2846001,56.4902218 55.9045819,56.4258805 56.448773,56.1150108 L56.4637946,56.1055289 C56.7478392,55.9402736 56.9888674,55.7194815 57.1718576,55.4621166 C57.357579,55.2000108 57.4886765,54.8965911 57.5501284,54.570144 C57.6184084,54.2037376 57.3732834,53.851554 57.0032061,53.7845037 C56.6331289,53.7174533 56.2780732,53.9605955 56.2111589,54.3270018 C56.1872609,54.4543298 56.1340025,54.5769167 56.0568462,54.6839264 C55.9899319,54.778745 55.9059475,54.8593409 55.8103556,54.9216503 C55.7823608,54.9351958 55.7550489,54.9507731 55.7284197,54.9683823 C55.5208487,55.0726829 55.2880141,55.0916466 55.0756635,55.0347554 C54.8633129,54.9778642 54.6714462,54.8478272 54.5458112,54.6548035 C54.529424,54.6209397 54.5096228,54.5877532 54.4864076,54.5559212 L53.3591058,52.6182342 C57.2968099,50.3331046 59.8463828,46.6805545 59.8463828,42.5647475 C59.8463828,42.0222493 59.8020008,41.4878785 59.7159681,40.9636668 L61.7186187,39.4540183 C61.8210386,39.3761315 61.9200445,39.2935039 62.0129052,39.2074898 C62.5953331,38.6670234 62.9196628,38.0080338 62.9872599,37.3307577 C63.0541743,36.6480633 62.8575281,35.9565644 62.3966385,35.3551432 Z M29.3935303,36.8404098 C28.85685,37.6524638 28.4307832,38.5159909 28.1303514,39.4181227 L26.7531451,38.3798584 C26.6848651,38.3290627 26.6227304,38.2762351 26.566058,38.2240849 C26.2369487,37.9186333 26.0539585,37.5610315 26.0191357,37.2047843 C25.984313,36.8539553 26.0901469,36.4922898 26.3366375,36.1712609 C26.3707774,36.1279153 26.4137938,36.0771196 26.4663693,36.0209056 C26.5571817,35.9247324 26.6664296,35.8488775 26.790699,35.79605 C26.9293073,35.7364497 27.0931792,35.6998768 27.2802662,35.6890404 C27.4673532,35.6768494 27.6407843,35.693104 27.7971453,35.7357724 C27.94463,35.776409 28.0784587,35.8414275 28.1945346,35.9287961 L29.2296584,36.7090182 C29.2876964,36.7523639 29.3505139,36.7855504 29.4153799,36.8079005 L29.3935303,36.8404098 Z M61.0842981,38.2234076 C61.0276257,38.2755578 60.9648082,38.3283854 60.897211,38.3791811 L59.3711544,39.5305505 C59.1062282,38.7022418 58.736151,37.9077969 58.2725302,37.1539886 C58.2076643,37.0490108 58.1496263,36.944033 58.0984164,36.8397325 C58.2124438,36.8255097 58.3244229,36.782164 58.4227461,36.7083409 L59.4571871,35.9281188 C59.573263,35.8407502 59.7070917,35.7750544 59.8552592,35.7350951 C60.0109374,35.6924267 60.1836857,35.6761721 60.3721383,35.6883631 C60.5585425,35.6998768 60.7230972,35.7357724 60.8610227,35.7953727 C60.9852921,35.8482002 61.09454,35.9240552 61.1853524,36.0202284 C61.2386107,36.0764423 61.2823099,36.1265607 61.3150842,36.1705837 C61.560892,36.4922898 61.6674087,36.8539553 61.6332688,37.204107 C61.5963976,37.559677 61.4140902,37.9179561 61.0842981,38.2234076 Z" id="Shape"></path>
            </g>
        </g>
    </g>
</svg>