<?xml version="1.0" encoding="UTF-8"?>
<svg width="92px" height="80px" viewBox="0 0 92 80" version="1.1" xmlns="http://www.w3.org/2000/svg" xmlns:xlink="http://www.w3.org/1999/xlink">
    <title>noun_career_1264034</title>
    <defs>
        <filter x="-7.9%" y="-7.5%" width="115.8%" height="114.9%" filterUnits="objectBoundingBox" id="filter-1">
            <feOffset dx="0" dy="2" in="SourceAlpha" result="shadowOffsetOuter1"></feOffset>
            <feGaussianBlur stdDeviation="2" in="shadowOffsetOuter1" result="shadowBlurOuter1"></feGaussianBlur>
            <feColorMatrix values="0 0 0 0 0   0 0 0 0 0   0 0 0 0 0  0 0 0 0.5 0" type="matrix" in="shadowBlurOuter1" result="shadowMatrixOuter1"></feColorMatrix>
            <feMerge>
                <feMergeNode in="shadowMatrixOuter1"></feMergeNode>
                <feMergeNode in="SourceGraphic"></feMergeNode>
            </feMerge>
        </filter>
    </defs>
    <g id="6.25---Aislynn" stroke="none" stroke-width="1" fill="none" fill-rule="evenodd">
        <g id="Explore-View--DarkUI" transform="translate(-348.000000, -750.000000)" fill="currentColor" fill-rule="nonzero">
            <g id="Group-16" filter="url(#filter-1)" transform="translate(367.000000, 720.000000)">
                <g id="noun_career_1264034" transform="translate(-10.000000, 39.000000)">
                    <rect id="Rectangle" x="6" y="49" width="2" height="3"></rect>
                    <path d="M51.6765479,45.4264112 C51.5501488,45.2262575 51.3389916,45.0681438 51.0803983,44.9800165 L43.1754546,42.2541598 L42.5316131,40.6680341 C44.7638618,39.1062511 45.9835059,36.820642 45.8462048,34.4565 L45.8462048,26.8582931 C45.8480371,26.6058398 45.7236204,26.3631928 45.5004381,26.1839522 C43.2719643,24.6832398 40.4153695,23.9066396 37.5001056,24.0089655 C34.5848514,23.9066396 31.7282566,24.6832398 29.4997829,26.1839522 C29.2766006,26.3631928 29.1521838,26.6058398 29.1540161,26.8582931 L29.1540161,34.4565 C29.0137394,36.8190863 30.2288568,39.1044331 32.4566849,40.6680341 L31.8128433,42.2541598 L23.9078997,44.9800165 C23.6493064,45.0681438 23.4381492,45.2262575 23.3117501,45.4264112 L22.1194509,47.3259629 C22.0384657,47.4590885 21.9976377,47.6054431 22.0001056,47.7533621 L22.0001056,62 L24.3848193,62 L24.3848193,47.9813083 L25.2551978,46.5946355 L32.4089929,44.1157205 L36.3078113,47.1929943 L36.3078113,52.5022414 L38.6924097,52.5022414 L38.6924097,47.1929943 L42.5673821,44.1062227 L49.7211772,46.5851377 L50.6154016,47.9813083 L50.6154016,62 L53,62 L53,47.7533621 C52.9988809,47.604682 52.953958,47.4582879 52.8688471,47.3259629 L51.6765479,45.4264112 Z M31.5386145,27.3046877 C33.2860634,26.3415041 35.3763083,25.8519729 37.5001105,25.9085172 C39.6239126,25.8519729 41.7141576,26.3415041 43.4616064,27.3046877 L43.4616064,31.4742038 C42.8654569,31.3507329 42.2693073,31.1132889 42.2693073,30.6573965 C42.2693073,30.1328498 41.7354967,29.7076207 41.0770081,29.7076207 L33.9232129,29.7076207 C33.2647242,29.7076207 32.7309137,30.1328498 32.7309137,30.6573965 C32.7309137,31.1037912 32.1347641,31.3412351 31.5386145,31.4742038 L31.5386145,27.3046877 Z M37.5001105,45.4644022 L34.1139808,42.7670388 L34.5670545,41.6368055 C36.4508776,42.1974925 38.5254973,42.1974925 40.4093205,41.6368055 L40.8623942,42.7670388 L37.5001105,45.4644022 Z M37.5001105,40.1551551 C33.1005265,40.1551551 31.5386145,37.0873791 31.5386145,34.4565 L31.5386145,33.4212443 C32.9741254,33.3122756 34.2412314,32.6286267 34.9008982,31.6071724 L40.0993227,31.6071724 C40.7589895,32.6286267 42.0260956,33.3122756 43.4616064,33.4212443 L43.4616064,34.4565 C43.4616064,37.0873791 41.8996945,40.1551551 37.5001105,40.1551551 Z" id="Shape"></path>
                    <rect id="Rectangle" x="29" y="57" width="2" height="5"></rect>
                    <rect id="Rectangle" x="45" y="57" width="2" height="5"></rect>
                    <path d="M25.1169213,16.189882 L29.6178167,16.189882 L29.6178167,20 L31.8682645,20 L31.8682645,15.2373525 C31.8682645,14.711285 31.3644846,14.284823 30.7430406,14.284823 L27.367369,14.284823 L37.4943838,2.55918498 L47.6213986,14.284823 L44.245727,14.284823 C43.624283,14.284823 43.1205031,14.711285 43.1205031,15.2373525 L43.1205031,20 L45.3709509,20 L45.3709509,16.189882 L49.8718463,16.189882 C50.2960549,16.1908154 50.6848301,15.9897094 50.87739,15.6697334 C51.0699498,15.3497575 51.033563,14.9653011 50.7832777,14.6753601 L38.4058151,0.387417739 C38.1937239,0.143803727 37.8575024,0 37.5,0 C37.1425175,0 36.806296,0.143803727 36.5942047,0.387417739 L24.2167422,14.6753601 C23.9676357,14.9639176 23.9303064,15.3462377 24.1200659,15.6655019 C24.3098254,15.9847661 24.6947379,16.1872432 25.1169213,16.189882 Z" id="Path"></path>
                    <path d="M73.7832777,27.9679335 L61.4058151,13.3951414 C61.1937239,13.1466707 60.8575024,13 60.5,13 C60.1425175,13 59.806296,13.1466707 59.5942047,13.3951414 L47.2167422,27.9679335 C46.9676357,28.2622438 46.9303064,28.652186 47.1200659,28.9778151 C47.3098254,29.3034443 47.6947379,29.5099581 48.1169213,29.5126495 L52.6178167,29.5126495 L52.6178167,36.3132858 L54.8682645,36.3132858 L54.8682645,28.54113 C54.8682645,28.0045746 54.3644846,27.5696105 53.7430406,27.5696105 L50.367369,27.5696105 L60.4943838,15.6102058 L70.6213986,27.5696105 L60.4943838,27.5696105 L60.4943838,29.5126495 L66.1205031,29.5126495 L66.1205031,47 L68.3709509,47 L68.3709509,29.5126495 L72.8718463,29.5126495 C73.2960549,29.5136015 73.6848301,29.3084862 73.87739,28.982131 C74.0699498,28.6557759 74.033563,28.2636549 73.7832777,27.9679335 Z" id="Path"></path>
                    <path d="M23.6213986,27.5696105 L20.245727,27.5696105 C19.624283,27.5696105 19.1205031,28.0045746 19.1205031,28.54113 L19.1205031,36.3132858 L21.3709509,36.3132858 L21.3709509,29.5126495 L25.8718463,29.5126495 C26.2960549,29.5136015 26.6848301,29.3084862 26.87739,28.982131 C27.0699498,28.6557759 27.033563,28.2636549 26.7832777,27.9679335 L14.4058151,13.3951414 C14.1937239,13.1466707 13.8575024,13 13.5,13 C13.1425175,13 12.806296,13.1466707 12.5942047,13.3951414 L0.216742179,27.9679335 C-0.0323643259,28.2622438 -0.0696936272,28.652186 0.120065878,28.9778151 C0.309825383,29.3034443 0.69473787,29.5099581 1.11692127,29.5126495 L5.61781674,29.5126495 L5.61781674,47 L7.86826447,47 L7.86826447,29.5126495 L13.4943838,29.5126495 L13.4943838,27.5696105 L3.367369,27.5696105 L13.4943838,15.6102058 L23.6213986,27.5696105 Z" id="Path"></path>
                    <rect id="Rectangle" x="21" y="38" width="2" height="3"></rect>
                    <rect id="Rectangle" x="51" y="38" width="2" height="3"></rect>
                    <rect id="Rectangle" x="66" y="49" width="2" height="3"></rect>
                </g>
            </g>
        </g>
    </g>
</svg>
