<?xml version="1.0" encoding="UTF-8"?>
<svg width="98px" height="88px" viewBox="0 0 98 88" version="1.1" xmlns="http://www.w3.org/2000/svg" xmlns:xlink="http://www.w3.org/1999/xlink">
    <title>noun_debt_778341</title>
    <defs>
        <filter x="-15.0%" y="-17.1%" width="130.0%" height="134.3%" filterUnits="objectBoundingBox" id="filter-1">
            <feOffset dx="0" dy="2" in="SourceAlpha" result="shadowOffsetOuter1"></feOffset>
            <feGaussianBlur stdDeviation="2" in="shadowOffsetOuter1" result="shadowBlurOuter1"></feGaussianBlur>
            <feColorMatrix values="0 0 0 0 0   0 0 0 0 0   0 0 0 0 0  0 0 0 0.253332605 0" type="matrix" in="shadowBlurOuter1" result="shadowMatrixOuter1"></feColorMatrix>
            <feMerge>
                <feMergeNode in="shadowMatrixOuter1"></feMergeNode>
                <feMergeNode in="SourceGraphic"></feMergeNode>
            </feMerge>
        </filter>
    </defs>
    <g id="6.25---Aislynn" stroke="none" stroke-width="1" fill="none" fill-rule="evenodd">
        <g id="noun_debt_778341" filter="url(#filter-1)" transform="translate(9.000000, 9.000000)" fill="currentColor" fill-rule="nonzero">
            <path d="M64.97546,0.01948 L7.382761,14.29378 C5.560801,14.74498 4.457561,16.48508 4.945731,18.16878 L6.773501,24.42828 L9.210531,24.42828 C9.244831,23.99158 9.571781,23.62448 10.070661,23.50088 L67.66335,9.22648 C68.42334,9.08888 68.72558,9.60838 69.06106,9.98848 C69.43078,11.36348 69.83836,12.72908 70.24374,14.09528 C70.4133,14.67998 70.08826,15.23018 69.45529,15.38698 L32.864031,24.42848 L41.75202,24.42848 L70.0287,17.44028 C70.4138,17.34528 70.75537,17.17658 71.06802,16.97668 L77.66233,39.66332 C77.83192,40.24822 77.50678,40.83142 76.87388,40.98812 L67.66335,43.27322 L67.66335,45.42602 L77.4473,43.00832 C79.26926,42.55732 80.37248,40.81712 79.88433,39.13342 C76.38945,26.82388 72.72827,14.55498 69.20447,2.27218 C68.10127,0.37108 66.82765,-0.10912 64.97546,0.01948 L64.97546,0.01948 Z M66.98242,2.83438 L68.23677,7.13988 C67.84756,7.10988 67.44982,7.10888 67.0541,7.20588 L9.461401,21.44708 C9.076281,21.54208 8.734731,21.71058 8.422081,21.91078 L7.167731,17.63848 C6.998211,17.05378 7.359101,16.50348 7.992021,16.34678 L65.58471,2.07238 C66.325,1.94668 66.6173,2.42088 66.98242,2.83468 L66.98242,2.83438 Z M3.440511,25.48788 C1.554301,25.48788 1.00000001e-06,26.92418 1.00000001e-06,28.66728 L1.00000001e-06,66.82062 C1.00000001e-06,68.56362 1.554361,70.00002 3.440511,70.00002 L63.07601,70.00002 C64.96215,70.00002 66.51652,68.56362 66.51652,66.82062 L66.51652,28.66728 C66.51652,26.92418 64.96222,25.48788 63.07601,25.48788 L3.440511,25.48788 Z M3.440511,27.60748 L63.07601,27.60748 C63.73123,27.60748 64.22284,28.06208 64.22284,28.66728 L64.22284,66.82062 C64.22284,67.42602 63.7313,67.88042 63.07601,67.88042 L3.440511,67.88042 C2.785221,67.88042 2.293671,67.42602 2.293671,66.82062 L2.293671,28.66728 C2.293671,28.06208 2.785291,27.60748 3.440511,27.60748 L3.440511,27.60748 Z M12.615201,33.96642 C10.728991,33.96642 9.174691,35.40272 9.174691,37.14582 L9.174691,47.74392 C9.174691,49.48702 10.729061,50.92342 12.615201,50.92342 L26.377241,50.92342 C28.263381,50.92342 29.817751,49.48702 29.817751,47.74392 L29.817751,37.14582 C29.817751,35.40272 28.263451,33.96642 26.377241,33.96642 L12.615201,33.96642 Z M12.615201,36.08602 L26.377241,36.08602 C27.032461,36.08602 27.524081,36.54062 27.524081,37.14582 L27.524081,47.74392 C27.524081,48.34942 27.032531,48.80382 26.377241,48.80382 L12.615201,48.80382 C11.959911,48.80382 11.468361,48.34942 11.468361,47.74392 L11.468361,37.14582 C11.468361,36.54062 11.959981,36.08602 12.615201,36.08602 Z M10.070661,55.16262 C9.470051,55.22262 8.983251,55.78342 9.048941,56.33842 C9.114641,56.89342 9.720961,57.34312 10.321531,57.28232 L56.19499,57.28232 C56.80087,57.29332 57.35816,56.78242 57.35816,56.22242 C57.35816,55.66242 56.80087,55.15472 56.19499,55.16262 C40.82669,55.16262 25.420091,55.16262 10.070661,55.16262 Z M10.070661,61.52152 C9.470051,61.58152 8.983251,62.14222 9.048941,62.69732 C9.114641,63.25232 9.720961,63.70202 10.321531,63.64112 L56.19499,63.64112 C56.80087,63.65212 57.35816,63.14132 57.35816,62.58132 C57.35816,62.02132 56.80087,61.51362 56.19499,61.52152 C40.82669,61.52152 25.420091,61.52152 10.070661,61.52152 Z" id="Shape"></path>
        </g>
    </g>
</svg>
