<?xml version="1.0" encoding="UTF-8"?>
<svg width="100px" height="100px" viewBox="0 0 100 100" version="1.1" xmlns="http://www.w3.org/2000/svg" xmlns:xlink="http://www.w3.org/1999/xlink">
    <title>noun_stars_163752</title>
    <defs>
        <filter x="-14.6%" y="-14.6%" width="129.3%" height="129.3%" filterUnits="objectBoundingBox" id="filter-1">
            <feOffset dx="0" dy="2" in="SourceAlpha" result="shadowOffsetOuter1"></feOffset>
            <feGaussianBlur stdDeviation="2" in="shadowOffsetOuter1" result="shadowBlurOuter1"></feGaussianBlur>
            <feColorMatrix values="0 0 0 0 0   0 0 0 0 0   0 0 0 0 0  0 0 0 0.222055288 0" type="matrix" in="shadowBlurOuter1" result="shadowMatrixOuter1"></feColorMatrix>
            <feMerge>
                <feMergeNode in="shadowMatrixOuter1"></feMergeNode>
                <feMergeNode in="SourceGraphic"></feMergeNode>
            </feMerge>
        </filter>
    </defs>
    <g id="6.25---Aislynn" stroke="none" stroke-width="1" fill="none" fill-rule="evenodd">
        <g id="Explore-View--DarkUI" transform="translate(-129.000000, -154.000000)" fill="currentColor" fill-rule="nonzero">
            <g id="noun_stars_163752" filter="url(#filter-1)" transform="translate(138.000000, 163.000000)">
                <path d="M63.925,47.939 C63.696,47.939 63.474,47.968 63.247,47.972 C47.462,47.611 34.721,34.748 34.583,18.91 C34.584,18.824 34.596,18.74 34.596,18.654 C34.596,17.867 33.958,17.229 33.171,17.229 C33.166,17.229 33.162,17.231 33.158,17.231 C33.153,17.231 33.149,17.229 33.144,17.229 C32.358,17.229 31.719,17.867 31.719,18.654 C31.719,18.74 31.732,18.824 31.733,18.91 C31.594,34.748 18.854,47.611 3.069,47.972 C2.842,47.968 2.621,47.939 2.392,47.939 C1.605,47.939 0.967,48.578 0.967,49.365 C0.967,49.377 0.973,49.386 0.974,49.398 C0.973,49.41 0.967,49.419 0.967,49.433 C0.967,50.218 1.605,50.857 2.392,50.857 C2.621,50.857 2.842,50.828 3.069,50.822 C18.854,51.185 31.594,64.049 31.733,79.886 C31.732,79.972 31.719,80.054 31.719,80.142 C31.719,80.929 32.358,81.568 33.144,81.568 C33.149,81.568 33.153,81.566 33.158,81.566 C33.162,81.566 33.166,81.568 33.171,81.568 C33.958,81.568 34.596,80.929 34.596,80.142 C34.596,80.054 34.584,79.972 34.583,79.886 C34.721,64.048 47.462,51.185 63.247,50.822 C63.474,50.828 63.696,50.857 63.925,50.857 C64.71,50.857 65.349,50.218 65.349,49.433 C65.349,49.419 65.341,49.41 65.341,49.398 C65.341,49.386 65.349,49.377 65.349,49.365 C65.349,48.578 64.71,47.939 63.925,47.939 Z M33.158,70.625 C30.029,60.535 22.064,52.551 11.982,49.398 C22.064,46.248 30.029,38.264 33.158,28.172 C36.286,38.264 44.253,46.248 54.333,49.398 C44.253,52.551 36.286,60.535 33.158,70.625 Z" id="Shape"></path>
                <path d="M81.032,17.212 C81.032,16.426 80.395,15.787 79.608,15.787 C79.497,15.787 79.389,15.802 79.278,15.804 C71.78,15.628 65.727,9.525 65.649,2.003 C65.649,1.954 65.657,1.905 65.657,1.857 C65.657,1.07 65.018,0.432 64.231,0.432 C64.229,0.432 64.225,0.434 64.223,0.434 C64.221,0.434 64.219,0.432 64.217,0.432 C63.43,0.432 62.791,1.07 62.791,1.857 C62.791,1.906 62.799,1.955 62.799,2.003 C62.721,9.524 56.668,15.628 49.17,15.804 C49.059,15.802 48.951,15.787 48.84,15.787 C48.053,15.787 47.414,16.426 47.414,17.212 C47.414,17.218 47.418,17.224 47.418,17.23 C47.418,17.235 47.414,17.241 47.414,17.247 C47.414,18.033 48.053,18.672 48.84,18.672 C48.951,18.672 49.059,18.657 49.17,18.655 C56.668,18.831 62.721,24.934 62.799,32.456 C62.799,32.505 62.791,32.554 62.791,32.602 C62.791,33.389 63.43,34.027 64.217,34.027 C64.219,34.027 64.221,34.025 64.223,34.025 C64.225,34.025 64.229,34.027 64.231,34.027 C65.018,34.027 65.657,33.389 65.657,32.602 C65.657,32.553 65.649,32.504 65.649,32.456 C65.727,24.935 71.78,18.831 79.278,18.655 C79.389,18.657 79.497,18.672 79.608,18.672 C80.395,18.672 81.032,18.033 81.032,17.247 C81.032,17.241 81.03,17.235 81.03,17.23 C81.03,17.224 81.032,17.218 81.032,17.212 Z M64.224,25.838 C62.533,22.006 59.454,18.926 55.624,17.23 C59.454,15.533 62.532,12.453 64.224,8.621 C65.917,12.453 68.995,15.533 72.826,17.23 C68.995,18.926 65.917,22.006 64.224,25.838 Z" id="Shape"></path>
            </g>
        </g>
    </g>
</svg>
