<?xml version="1.0" encoding="UTF-8"?>
<svg width="98px" height="99px" viewBox="0 0 98 99" version="1.1" xmlns="http://www.w3.org/2000/svg" xmlns:xlink="http://www.w3.org/1999/xlink">
    <title>noun_House_1233598</title>
    <defs>
        <filter x="-15.0%" y="-14.8%" width="130.0%" height="129.6%" filterUnits="objectBoundingBox" id="filter-1">
            <feOffset dx="0" dy="2" in="SourceAlpha" result="shadowOffsetOuter1"></feOffset>
            <feGaussianBlur stdDeviation="2" in="shadowOffsetOuter1" result="shadowBlurOuter1"></feGaussianBlur>
            <feColorMatrix values="0 0 0 0 0   0 0 0 0 0   0 0 0 0 0  0 0 0 0.233528191 0" type="matrix" in="shadowBlurOuter1" result="shadowMatrixOuter1"></feColorMatrix>
            <feMerge>
                <feMergeNode in="shadowMatrixOuter1"></feMergeNode>
                <feMergeNode in="SourceGraphic"></feMergeNode>
            </feMerge>
        </filter>
    </defs>
    <g id="6.25---Aislynn" stroke="none" stroke-width="1" fill="none" fill-rule="evenodd">
        <g id="noun_House_1233598" filter="url(#filter-1)" transform="translate(9.000000, 9.000000)" fill="currentColor" fill-rule="nonzero">
            <path d="M0.503,34.689 C0.814,34.869 1.196,34.865 1.505,34.685 L7.373,31.254 L7.373,71.56 L4.581,71.56 C4.029,71.56 3.581,72.007 3.581,72.56 L3.581,80 C3.581,80.553 4.029,81 4.581,81 L75.419,81 C75.971,81 76.419,80.553 76.419,80 L76.419,72.56 C76.419,72.007 75.971,71.56 75.419,71.56 L72.627,71.56 L72.627,31.256 L78.496,34.685 C78.652,34.776 78.826,34.822 79,34.822 C79.172,34.822 79.344,34.778 79.498,34.689 C79.809,34.512 80,34.181 80,33.822 L80,25.572 C80,25.222 79.817,24.897 79.518,24.717 L71.001,19.567 L71.001,2.072 C71.001,1.519 70.553,1.072 70.001,1.072 L59.375,1.072 C58.823,1.072 58.375,1.519 58.375,2.072 L58.375,11.932 L40.521,1.137 C40.42,1.076 40.31,1.037 40.196,1.019 C39.94,0.96 39.674,1 39.45,1.137 L0.483,24.717 C0.184,24.897 0,25.223 0,25.572 L0,33.822 C0,34.181 0.192,34.512 0.503,34.689 Z M74.419,79 L5.581,79 L5.581,73.56 L74.419,73.56 L74.419,79 Z M35,71.56 L20,71.56 L20,38.92 L35,38.92 L35,71.56 Z M70.627,71.56 L37,71.56 L37,37.92 C37,37.367 36.552,36.92 36,36.92 L19,36.92 C18.448,36.92 18,37.367 18,37.92 L18,71.56 L9.373,71.56 L9.373,30.085 L39.985,12.185 L70.627,30.088 L70.627,71.56 Z M60.375,3.072 L69,3.072 L69,18.357 L60.375,13.141 L60.375,3.072 Z M2,26.136 L39.985,3.15 L78,26.136 L78,32.08 L40.49,10.163 C40.334,10.072 40.16,10.026 39.986,10.026 C39.812,10.026 39.637,10.072 39.481,10.163 L2,32.079 L2,26.136 Z" id="Shape"></path>
            <path d="M45.75,55.957 L62.863,55.957 C63.415,55.957 63.863,55.51 63.863,54.957 L63.863,37.844 C63.863,37.291 63.415,36.844 62.863,36.844 L45.75,36.844 C45.198,36.844 44.75,37.291 44.75,37.844 L44.75,54.957 C44.75,55.51 45.198,55.957 45.75,55.957 Z M46.75,47.336 L53.307,47.336 L53.307,53.957 L46.75,53.957 L46.75,47.336 Z M55.307,53.957 L55.307,47.336 L61.864,47.336 L61.864,53.957 L55.307,53.957 Z M61.864,45.336 L55.307,45.336 L55.307,38.844 L61.864,38.844 L61.864,45.336 Z M53.307,38.844 L53.307,45.336 L46.75,45.336 L46.75,38.844 L53.307,38.844 Z" id="Shape"></path>
        </g>
    </g>
</svg>
