<?xml version="1.0" encoding="UTF-8"?>
<svg width="107px" height="79px" viewBox="0 0 107 79" version="1.1" xmlns="http://www.w3.org/2000/svg" xmlns:xlink="http://www.w3.org/1999/xlink">
    <title>noun_Piggy Bank_2738853</title>
    <defs>
        <filter x="-7.9%" y="-7.5%" width="115.9%" height="114.9%" filterUnits="objectBoundingBox" id="filter-1">
            <feOffset dx="0" dy="2" in="SourceAlpha" result="shadowOffsetOuter1"></feOffset>
            <feGaussianBlur stdDeviation="2" in="shadowOffsetOuter1" result="shadowBlurOuter1"></feGaussianBlur>
            <feColorMatrix values="0 0 0 0 0   0 0 0 0 0   0 0 0 0 0  0 0 0 0.5 0" type="matrix" in="shadowBlurOuter1" result="shadowMatrixOuter1"></feColorMatrix>
            <feMerge>
                <feMergeNode in="shadowMatrixOuter1"></feMergeNode>
                <feMergeNode in="SourceGraphic"></feMergeNode>
            </feMerge>
        </filter>
    </defs>
    <g id="6.25---Aislynn" stroke="none" stroke-width="1" fill="none" fill-rule="evenodd">
        <g id="Explore-View--DarkUI" transform="translate(-218.000000, -747.000000)" fill="currentColor" fill-rule="nonzero" stroke="currentColor">
            <g id="Group-16" filter="url(#filter-1)" transform="translate(196.000000, 720.000000)">
                <g id="noun_Piggy-Bank_2738853" transform="translate(32.000000, 37.000000)">
                    <path d="M18.5,25 C17.6727981,25 17,25.6727981 17,26.5 C17,27.3272019 17.6727981,28 18.5,28 C19.3272019,28 20,27.3272019 20,26.5 C20,25.6727981 19.3272019,25 18.5,25 Z M18.5,27.1430102 C18.1452247,27.1430102 17.8569898,26.8547753 17.8569898,26.5 C17.8569898,26.1452247 18.1452247,25.8569898 18.5,25.8569898 C18.8547753,25.8569898 19.1430102,26.1452247 19.1430102,26.5 C19.1430102,26.8547753 18.8547753,27.1430102 18.5,27.1430102 Z" id="Shape"></path>
                    <path d="M86.3064802,20.5038092 C83.7535821,20.8571973 81.5838167,21.9798585 80.1586848,23.6748745 C78.1944248,23.6925135 75.5856183,24.1711993 73.5319353,25.4235678 C69.3960819,18.0886357 61.063592,14.157269 57.4725031,12.7470619 C57.5392276,12.2445026 57.583863,11.7431599 57.583863,11.2523093 C57.583863,5.04733714 52.5272723,0 46.3109243,0 C40.5069581,0 35.68695,4.40503448 35.1240572,10.0622854 C32.1753822,10.3464861 29.4405912,10.8406821 26.9993577,11.549283 L17.6990576,3.70129947 C17.5272191,3.55805868 17.294445,3.51715446 17.0839124,3.59957114 C16.8756649,3.68046721 16.7291147,3.86902197 16.7007797,4.09042175 L15.2860067,15.3612824 C13.372171,16.0533087 4.99413166,19.6083262 4.64161906,28.8914547 L0.609203932,28.8914547 C0.27299161,28.8914547 0,29.1639468 0,29.4995438 L0,40.6604648 C0,40.9960619 0.27299161,41.2693142 0.609203932,41.2693142 L7.00333163,41.2693142 C7.92863912,42.6696374 12.22064,48.1462408 22.8508602,48.3496974 L22.8508602,56.8705477 C22.8508602,58.0436928 23.8073972,59 24.9834548,59 L32.6004082,59 C33.7764658,59 34.7330028,58.0436928 34.7330028,56.8705477 L34.7330028,50.7881362 C34.7330028,49.4472686 35.8264926,48.3557798 37.1705802,48.3557798 L49.3577056,48.3557798 C50.7017932,48.3557798 51.7952831,49.4472686 51.7952831,50.7881362 L51.7952831,56.8705477 C51.7952831,58.0436928 52.7518201,59 53.9278777,59 L61.5448311,59 C62.7208887,59 63.6774257,58.0436928 63.6774257,56.8705477 L63.6774257,48.2414305 C66.0629031,47.697967 75.940416,44.8185534 75.940416,34.5485536 C75.940416,31.5325899 75.2180241,28.8827873 74.0847738,26.5355847 C75.6515811,25.5465846 77.6123372,25.0580149 79.288524,24.9289157 C78.4390814,26.4510392 78.1727927,28.1519855 78.5818231,29.6570783 C78.9827795,31.1524392 80.1193813,32.03743 81.6308895,32.03743 C81.6561778,32.03743 81.6822278,32.03743 81.7075161,32.0359094 C83.2859011,32.0047371 85.1619568,30.8991067 85.5696161,29.096432 C86.0299848,26.9847708 85.167898,24.5464841 82.1969815,23.8574989 C82.0594193,23.8270868 81.9098223,23.8003242 81.750628,23.7766028 C82.95563,22.6918047 84.5920563,21.9693663 86.4748148,21.7079747 C86.8081327,21.6619004 87.0409068,21.3545866 86.9939864,21.0218786 C86.9476753,20.6894749 86.6516805,20.4489155 86.3064802,20.5038092 Z M46.3107719,1.21633024 C51.8546953,1.21633024 56.3653028,5.71868331 56.3653028,11.2524613 C56.3653028,11.8345481 56.3116794,12.4338177 56.2061084,13.0329352 C55.9375347,14.5504969 55.3329009,15.9502119 54.40607,17.1975624 C54.0847869,17.0622287 53.7464418,16.9478794 53.4166278,16.8225817 C53.1299256,16.7137066 52.8496218,16.5979887 52.5569784,16.4967165 C52.2411795,16.3873852 51.9166973,16.2926516 51.5946525,16.1924439 C51.3838152,16.1267538 51.1761771,16.0603035 50.9630547,15.9987191 C50.7674514,15.9421527 50.5765705,15.8788956 50.3792914,15.8255224 C49.9318716,15.7046345 49.4750067,15.6053391 49.0195129,15.501634 C48.7204713,15.433511 48.4266093,15.3545917 48.1248256,15.2939197 C48.0753154,15.2840357 48.0255005,15.2756724 47.975838,15.2659406 C47.8705717,15.2452604 47.7640867,15.2327914 47.6583633,15.2130236 C47.3450019,15.1544804 47.0290507,15.1058211 46.7134041,15.0553371 C46.1035908,14.9577144 45.4930158,14.8763621 44.8781754,14.8096076 C44.6330618,14.7829971 44.3906903,14.7554742 44.1451198,14.7337295 C43.9528679,14.7168509 43.7613776,14.6891759 43.5689734,14.6751863 C43.1399866,14.644166 42.7129802,14.6376274 42.2847551,14.6219652 C41.9416875,14.6094963 41.5981629,14.5869914 41.256314,14.5844063 C41.1761837,14.5837981 41.0962057,14.5812131 41.0162276,14.581061 C41.008763,14.581061 41.0011461,14.5799966 40.9936815,14.5799966 C40.5351409,14.5799966 40.0813228,14.6029577 39.6264383,14.621357 C39.4297686,14.6291121 39.2311184,14.6278956 39.0353627,14.6391481 C38.9739701,14.6427975 38.9125775,14.6459908 38.8513371,14.6497923 C38.6159733,14.6648462 38.3865507,14.6946501 38.1530149,14.714722 C37.7378909,14.7503041 37.3200248,14.7787394 36.9116038,14.8301358 C36.4765234,13.7149256 36.2562054,12.5136493 36.2562054,11.2521572 C36.2562054,11.0680122 36.253956,10.8838672 36.2859472,10.6484779 C36.5887973,5.35936485 40.9923104,1.21633024 46.3107719,1.21633024 Z M62.9713341,47.1470526 C62.676101,47.1946475 62.4588655,47.4484361 62.4588655,47.7469304 L62.4588655,56.8705477 C62.4588655,57.3740193 62.0490734,57.7823012 61.5446787,57.7823012 L53.9277253,57.7823012 C53.4233307,57.7823012 53.0135386,57.3738673 53.0135386,56.8705477 L53.0135386,50.7881362 C53.0135386,48.7760745 51.3733038,47.1380811 49.3575533,47.1380811 L37.1704279,47.1380811 C35.1546773,47.1380811 33.5144426,48.7759224 33.5144426,50.7881362 L33.5144426,56.8705477 C33.5144426,57.3740193 33.1046505,57.7823012 32.6002558,57.7823012 L24.9833024,57.7823012 C24.4789078,57.7823012 24.0691157,57.3738673 24.0691157,56.8705477 L24.0691157,47.7469304 C24.0691157,47.4113334 23.7961241,47.1380811 23.4599118,47.1380811 C11.8157228,47.1380811 7.91279586,40.4319182 7.87486343,40.3651638 C7.76700737,40.1720472 7.56241601,40.0517675 7.34228605,40.0517675 L1.21825553,40.0517675 L1.21825553,30.1076329 L5.23939756,30.1076329 C5.57560988,30.1076329 5.84860149,29.8351409 5.84860149,29.4995438 C5.84860149,19.5087267 15.5996729,16.5202859 16.0146445,16.3977253 C16.2474186,16.3294502 16.4171243,16.129643 16.4475921,15.8898439 L17.7701999,5.35480304 L26.4634288,12.6904955 C26.6210998,12.8226358 26.8368119,12.8687101 27.0324152,12.8077339 C29.4253573,12.0883367 32.1150559,11.5766538 35.0376809,11.2840899 C35.0382903,11.4978866 35.0590084,11.7062092 35.0708908,11.9171168 C35.0807929,12.0922903 35.0807929,12.2703529 35.0984642,12.4433975 C35.118573,12.6390991 35.1575718,12.8291744 35.1875826,13.0218348 C35.2168317,13.2093252 35.2366357,13.3997046 35.2751775,13.5841538 C35.3125006,13.7628246 35.368409,13.9351089 35.4145678,14.1108906 C35.464992,14.3026386 35.5062759,14.4974279 35.5672115,14.6855264 C35.6057533,14.8047417 35.6589196,14.9183307 35.7017269,15.0360254 C34.03986,15.3130792 32.4782322,15.6987041 31.0981926,16.2359331 C30.7849835,16.3577334 30.6295977,16.7103612 30.7522306,17.0237575 C30.8734925,17.3356331 31.2246341,17.4886058 31.5414993,17.3690864 C33.0426485,16.7847187 34.7497601,16.3571252 36.616066,16.0972542 C37.3433327,15.993549 38.0832436,15.9169107 38.8315331,15.8667308 C44.070626,15.5153194 49.7266709,16.4594618 54.3536654,18.5007191 C55.7684383,19.1170194 57.0598166,19.8335275 58.1918482,20.6301713 C58.2981809,20.7051371 58.4209661,20.7408712 58.542228,20.7408712 C58.7341753,20.7408712 58.922314,20.6510036 59.0412908,20.4832811 C59.2347614,20.2085082 59.1692556,19.8291177 58.8939789,19.6353929 C57.8832092,18.9245111 56.734268,18.2916362 55.5138797,17.7171524 C55.6279817,17.5565767 55.7475678,17.3988902 55.8522248,17.2342089 C55.9320505,17.1087592 55.9981656,16.977227 56.0725071,16.8491923 C56.2205806,16.5944913 56.3646934,16.3382697 56.4909825,16.074141 C56.5654763,15.9184313 56.6293064,15.7586159 56.6961832,15.5997129 C56.8005355,15.3518546 56.8992512,15.1018675 56.9851704,14.8465583 C57.0422976,14.6764028 57.0936358,14.5039665 57.1425367,14.3304657 C57.1771177,14.2082092 57.2232764,14.0903625 57.2535919,13.9664333 C62.1220438,15.9199519 74.7212464,22.1811863 74.7212464,34.5487057 C74.7212464,45.1244987 63.4512022,47.0682854 62.9713341,47.1470526 Z M81.926732,25.0440253 C84.9608692,25.7471521 84.4476389,28.5240771 84.3800003,28.8329115 C84.1085321,30.0328192 82.7688623,30.7982907 81.6835988,30.8197312 C81.1249715,30.8606355 80.111155,30.6541376 79.75849,29.3406408 C79.3768807,27.9372764 79.7466076,26.2986748 80.7454948,24.9027613 C81.2073869,24.9260265 81.6121518,24.9742296 81.926732,25.0440253 Z" id="Shape"></path>
                </g>
            </g>
        </g>
    </g>
</svg>
