<?xml version="1.0" encoding="UTF-8"?>
<svg width="98px" height="72px" viewBox="0 0 98 72" version="1.1" xmlns="http://www.w3.org/2000/svg" xmlns:xlink="http://www.w3.org/1999/xlink">
    <title>noun_shake hand_2207264</title>
    <defs>
        <filter x="-7.9%" y="-7.5%" width="115.8%" height="114.9%" filterUnits="objectBoundingBox" id="filter-1">
            <feOffset dx="0" dy="2" in="SourceAlpha" result="shadowOffsetOuter1"></feOffset>
            <feGaussianBlur stdDeviation="2" in="shadowOffsetOuter1" result="shadowBlurOuter1"></feGaussianBlur>
            <feColorMatrix values="0 0 0 0 0   0 0 0 0 0   0 0 0 0 0  0 0 0 0.5 0" type="matrix" in="shadowBlurOuter1" result="shadowMatrixOuter1"></feColorMatrix>
            <feMerge>
                <feMergeNode in="shadowMatrixOuter1"></feMergeNode>
                <feMergeNode in="SourceGraphic"></feMergeNode>
            </feMerge>
        </filter>
    </defs>
    <g id="6.25---Aislynn" stroke="none" stroke-width="1" fill="none" fill-rule="evenodd">
        <g id="Explore-View--DarkUI" transform="translate(-51.000000, -759.000000)" fill="currentColor" fill-rule="nonzero">
            <g id="Group-16" filter="url(#filter-1)" transform="translate(24.000000, 720.000000)">
                <g id="noun_shake-hand_2207264" transform="translate(36.000000, 48.000000)">
                    <path d="M79.1087344,2.08365497 L69.1889483,2.08365497 C68.6967159,2.08365497 68.2976827,2.53020428 68.2976827,3.08105077 L68.2976827,7.56933187 L60.6417112,9.94313388 L35.9180036,1.21592062 C35.6508736,1.0430765 35.3739991,0.889820252 35.0891266,0.757118553 L35.0356506,0.757118553 C32.251393,-0.571613716 29.0445073,-0.130154916 26.631016,1.91409768 C26.631016,1.91409768 26.631016,1.91409768 26.631016,1.91409768 L11.7468806,5.1157382 L11.7468806,3.1209466 C11.7468806,2.57010011 11.3478474,2.1235508 10.855615,2.1235508 L0.891265597,2.1235508 C0.3990332,2.1235508 0,2.57010011 0,3.1209466 L0,39.4062058 C0,39.9570523 0.3990332,40.4036016 0.891265597,40.4036016 L10.8110517,40.4036016 C11.3032841,40.4036016 11.7023173,39.9570523 11.7023173,39.4062058 L11.7023173,30.7687582 C16.7468806,36.3043049 30.8734403,51.71407 31.0249554,51.8337575 C32.2314162,53.170395 33.8466661,53.9440581 35.543672,53.9981064 C36.6280942,54.0333081 37.6791862,53.5764755 38.4581105,52.7314137 C39.2931514,51.8013986 39.8103781,50.5731769 39.9197861,49.2604763 L40.543672,49.9486794 C41.8650367,51.4431932 43.8427097,51.9406622 45.6084711,51.2226922 C47.3742325,50.5047222 48.6052685,48.7025714 48.7611408,46.6074035 L49.0730838,46.956492 C49.9807093,47.972413 51.2118302,48.5431696 52.4955437,48.5431696 C53.7792572,48.5431696 55.010378,47.972413 55.9180036,46.956492 C56.705243,46.0656285 57.1878752,44.8936401 57.2816399,43.645138 C58.733933,44.9144598 60.7057031,45.1464758 62.3621553,44.2429565 C64.0186074,43.3394371 65.0700388,41.4584022 65.0713012,39.3962319 C65.0721407,38.6537629 64.9324123,37.9195183 64.6613191,37.2418569 L68.2798574,37.1520913 L68.2798574,39.4062058 C68.2798574,39.9570523 68.6788906,40.4036016 69.171123,40.4036016 L79.1087344,40.4036016 C79.6009668,40.4036016 80,39.9570523 80,39.4062058 L80,3.08105077 C80,2.53020428 79.6009668,2.08365497 79.1087344,2.08365497 Z M9.9197861,38.40881 L1.78253119,38.40881 L1.78253119,4.07844657 L9.9197861,4.07844657 L9.9197861,38.40881 Z M62.4064171,41.8099297 C61.2002135,43.1018141 59.2988952,43.1018141 58.0926916,41.8099297 L56.2299465,39.7253725 C56.1364955,39.5822627 56.0352958,39.445696 55.9269162,39.3164402 L48.0213904,30.569279 L47.9322638,30.4994613 L47.4955437,30.0007634 C47.1418639,29.6840881 46.6321832,29.7146431 46.3107593,30.0717904 C45.9893354,30.4289378 45.9584048,30.9990784 46.2388592,31.3971176 L54.9554367,41.1416745 C55.8441538,42.4818656 55.7228746,44.3480274 54.6702317,45.530216 C53.4610295,46.8233569 51.5567958,46.8233569 50.3475936,45.530216 L42.4331551,36.7232111 C42.0795363,36.3843192 41.5524116,36.4071042 41.2232057,36.7755113 C40.8939998,37.1439185 40.8736392,37.7338122 41.1764706,38.1295392 L42.3529412,39.4461017 L42.3529412,39.4461017 L46.1229947,43.6551119 C46.8999359,44.5227881 47.2042154,45.7884043 46.921214,46.9752151 C46.6382126,48.1620258 45.8109249,49.0897264 44.7509822,49.4088609 C43.6910395,49.7279954 42.5594724,49.3900797 41.7825312,48.5224034 L38.5828877,44.9417525 L33.4224599,39.1668308 C33.25511,38.9780112 33.0273062,38.8718028 32.7896613,38.8718028 C32.5520165,38.8718028 32.3242127,38.9780112 32.1568627,39.1668308 C31.811298,39.5558526 31.811298,40.1841372 32.1568627,40.5731589 L36.7557932,45.7197212 L36.7557932,45.7197212 L37.3262032,46.3580546 C37.9093989,46.9937174 38.2319399,47.8708224 38.2174688,48.7817264 C38.1972322,49.7395806 37.8457864,50.6513107 37.2370766,51.3250856 C36.087344,52.6017523 33.600713,51.8836273 32.2905526,50.4174555 C32.1122995,50.2179763 14.9019608,31.4669353 11.7201426,27.966076 L11.7201426,7.15042564 L24.6345811,4.36769135 C24.5721925,4.48737885 24.5008913,4.58711843 24.4385027,4.70680592 L21.8983957,9.62396722 C20.5183558,12.3101655 21.339248,15.739467 23.7344029,17.2939409 C26.973732,19.3667873 31.1011685,18.1127607 32.9590018,14.4912587 L34.2602496,11.9578734 C34.3582888,11.9578734 34.4474153,11.9578734 34.5454545,11.9578734 C36.0575563,11.9526685 37.4875299,11.1873306 38.4402852,9.87331617 L49.1354724,22.1313106 L49.2245989,22.2011283 L62.4064171,36.982534 C62.9820908,37.6197666 63.3034697,38.490115 63.2977595,39.3962319 C63.2994676,40.3014707 62.9787022,41.1701574 62.4064171,41.8099297 L62.4064171,41.8099297 Z M68.2976827,35.1572997 L63.600713,35.2769872 C63.5473178,35.2723372 63.4936804,35.2723372 63.4402852,35.2769872 L50.3475936,20.6551648 L50.1158645,20.4157898 L50.1158645,20.4157898 L38.9572193,7.62917562 L38.9572193,7.62917562 C38.923705,7.59915603 38.8879193,7.57245805 38.8502674,7.54938396 C38.8028362,7.49749548 38.7487679,7.45379623 38.6898396,7.4197225 L38.6898396,7.4197225 L38.5918004,7.4197225 C38.2796267,7.30678729 37.9372499,7.39491095 37.7005348,7.64912354 L37.7005348,7.64912354 C37.7005348,7.64912354 37.7005348,7.64912354 37.7005348,7.64912354 C37.6342554,7.72695983 37.5773286,7.81413574 37.5311943,7.90844644 C36.9977822,9.18687714 35.8508102,10.0036825 34.5900178,10.0029776 C34.3951406,10.0050085 34.2007176,9.98157741 34.0106952,9.93315992 C34.0106952,9.93315992 34.0106952,9.93315992 34.0106952,9.93315992 L33.6541889,9.93315992 L33.5115865,10.0029776 C33.4555493,10.0267864 33.4018012,10.0568605 33.3511586,10.0927432 C33.3111818,10.1274847 33.2752515,10.1676936 33.2442068,10.2124307 C33.1928967,10.2580069 33.1478519,10.3117761 33.1105169,10.3720141 L33.1105169,10.3720141 L31.5151515,13.4639411 C30.1292557,16.103111 27.0989512,16.9943455 24.7326203,15.4587327 C23.9807722,14.9770885 23.4329439,14.1781267 23.211811,13.2407597 C22.9906782,12.3033926 23.1147164,11.3059368 23.5561497,10.4717537 L26.0784314,5.58451423 C27.3486884,3.10948715 29.7734982,1.66742837 32.3172906,1.87420185 L60.4634581,11.8481599 C60.5520776,11.8632059 60.6422183,11.8632059 60.7308378,11.8481599 C60.8108202,11.8578054 60.8914971,11.8578054 60.9714795,11.8481599 L68.2976827,9.62396722 L68.2976827,35.1572997 Z M78.2174688,38.40881 L70.0802139,38.40881 L70.0802139,4.07844657 L78.2174688,4.07844657 L78.2174688,38.40881 Z" id="Shape"></path>
                </g>
            </g>
        </g>
    </g>
</svg>
