<svg height='100px' width='100px'  fill="currentColor" xmlns:dc="http://purl.org/dc/elements/1.1/" xmlns:cc="http://creativecommons.org/ns#" xmlns:rdf="http://www.w3.org/1999/02/22-rdf-syntax-ns#" xmlns:svg="http://www.w3.org/2000/svg" xmlns="http://www.w3.org/2000/svg" xmlns:sodipodi="http://sodipodi.sourceforge.net/DTD/sodipodi-0.dtd" xmlns:inkscape="http://www.inkscape.org/namespaces/inkscape" version="1.1" x="0px" y="0px" viewBox="0 0 100 100"><g transform="translate(0,-952.36218)"><path style="text-indent:0;text-transform:none;direction:ltr;block-progression:tb;baseline-shift:baseline;color:#000000;enable-background:accumulate;" d="m 13.035556,958.31255 c -0.9901,-10e-4 -2.0021,0.0311 -3.0313,0.0625 a 2.000005,2.000005 0 0 0 -0.7811993,3.78125 c 2.9818993,1.44093 4.3251993,4.52102 5.2499993,8.96875 0.9248,4.44772 1.2492,9.94443 2.5938,15.1875 1.3445,5.24306 3.8404,10.38032 9.125,13.53125 5.0322,3.0005 12.2763,4.0914 22.9062,2.5312 0.5222,1.6441 0.8011,3.2817 0.875,4.9688 0.2889,6.5914 -2.8158,14.4292 -8.6875,25.75 -11.5463,0.5251 -22.9412,3.6945 -34.1249993,9.4687 a 2.000005,2.000005 0 1 0 1.8437,3.5313 C 19.956456,1040.4392 30.957056,1037.4088 42.129256,1037 a 2.000005,2.000005 0 0 0 1,-0.031 c 12.542,-0.2833 25.2845,2.7528 38.3126,9.1562 a 2.000005,2.000005 0 1 0 1.75,-3.5937 c -12.5628,-6.1748 -25.0488,-9.3558 -37.375,-9.5313 3.3476,-6.5627 5.8612,-12.1085 7.1562,-17.1562 2.1277,-2.8593 3.9047,-3.7854 6.9688,-5.0625 1.2096,-0.5042 2.6702,-1.0966 4.2812,-1.7813 5.5688,0.9835 9.4781,1.04 12.4688,0.3438 3.1104,-0.7241 5.1727,-2.367 6.5937,-4.0625 2.8419,-3.3912 3.3414,-6.36153 9.2187,-7.65625 a 2.000005,2.000005 0 0 0 0.3126,-3.8125 c -4.9812,-2.04004 -9.4442,-2.88705 -13.3438,-2.875 -4.1513,0.0128 -7.6348,1.02543 -10.4062,2.6875 -4.8044,2.88109 -7.3743,7.60155 -7.25,12.06245 -1.216,0.5026 -2.356,0.9685 -3.4063,1.4063 -1.574,0.656 -3.0497,1.3722 -4.4375,2.3125 0.034,-0.7542 0.033,-1.5055 0,-2.25 -0.1027,-2.3441 -0.5647,-4.6082 -1.375,-6.8438 4.2149,-7.29934 4.5989,-17.85 -1.375,-26.62495 -5.9324,-8.71373 -18.0559,-15.35367 -38.1875,-15.375 z m 2.2813,4.03125 c 17.8025,0.47671 27.7516,6.48135 32.5937,13.59375 4.3629,6.40843 4.6322,13.9661 2.4687,19.71875 -2.345,-3.9769 -5.8525,-8.02097 -10.5624,-12.4375 a 2.000005,2.000005 0 0 0 -1.4376,-0.5625 2.000005,2.000005 0 0 0 -1.2812,3.5 c 4.9979,4.68647 8.3392,8.65179 10.375,12.4375 -9.4701,1.24916 -15.4205,0.10848 -19.2188,-2.15625 -4.1352,-2.46564 -6.0993,-6.39411 -7.3124,-11.125 -1.2133,-4.7309 -1.5495,-10.12828 -2.5626,-15 -0.599,-2.88149 -1.4893,-5.69653 -3.0624,-7.96875 z m 64.5312,32.5625 c 1.9681,0.0257 4.1492,0.33155 6.5625,0.96875 -3.2276,2.12497 -4.6667,5.02895 -6.1875,6.84375 -1.0839,1.2934 -2.1543,2.1872 -4.4375,2.7187 -1.2138,0.2826 -2.8146,0.4304 -4.875,0.3438 0.9643,-0.5309 1.9611,-1.1286 3.0313,-1.7813 a 2.000005,2.000005 0 0 0 -1,-3.7187 2.000005,2.000005 0 0 0 -1.0626,0.3125 c -2.2051,1.345 -4.1472,2.3752 -5.875,3.2187 0.5225,-2.4212 2.1608,-5.02233 5.0938,-6.7812 2.1819,-1.30847 5.0952,-2.17276 8.75,-2.125 z" fill="currentColor" fill-opacity="1" fill-rule="evenodd" stroke="none" marker="none" visibility="visible" display="inline" overflow="visible"></path></g></svg>