<?xml version="1.0" encoding="UTF-8"?>
<svg width="104px" height="76px" viewBox="0 0 104 76" version="1.1" xmlns="http://www.w3.org/2000/svg" xmlns:xlink="http://www.w3.org/1999/xlink">
    <title>noun_Stock_161182</title>
    <defs>
        <filter x="-14.0%" y="-20.7%" width="127.9%" height="141.4%" filterUnits="objectBoundingBox" id="filter-1">
            <feOffset dx="0" dy="2" in="SourceAlpha" result="shadowOffsetOuter1"></feOffset>
            <feGaussianBlur stdDeviation="2" in="shadowOffsetOuter1" result="shadowBlurOuter1"></feGaussianBlur>
            <feColorMatrix values="0 0 0 0 0   0 0 0 0 0   0 0 0 0 0  0 0 0 0.218203671 0" type="matrix" in="shadowBlurOuter1" result="shadowMatrixOuter1"></feColorMatrix>
            <feMerge>
                <feMergeNode in="shadowMatrixOuter1"></feMergeNode>
                <feMergeNode in="SourceGraphic"></feMergeNode>
            </feMerge>
        </filter>
    </defs>
    <g id="6.25---Aislynn" stroke="none" stroke-width="1" fill="none" fill-rule="evenodd">
        <g id="noun_Stock_161182" filter="url(#filter-1)" transform="translate(9.000000, 9.000000)" fill="currentColor" fill-rule="nonzero">
            <path d="M61.9,4.9 C61.8,3.6 62.9,2.4 64.2,2.3 L77.5,1.6 C78.2,1.6 78.9,1.8 79.4,2.3 C79.9,2.8 80.1,3.5 80.1,4.2 L79.4,17.5 C79.3,18.8 78.3,19.8 77,19.8 C77,19.8 76.9,19.8 76.9,19.8 C75.6,19.7 74.5,18.6 74.6,17.2 L75,6.6 L64.4,7.2 C63,7.3 61.9,6.2 61.9,4.9 Z M83,52.4 L8.8,52.4 L19.6,41.6 L23.8,45.8 C24.7,46.7 26.3,46.7 27.3,45.8 L39.2,33.9 L43.4,38.1 C43.9,38.6 44.5,38.8 45.1,38.8 C45.7,38.8 46.4,38.5 46.8,38.1 L72.6,12.3 C73.6,11.3 73.6,9.8 72.6,8.8 C71.6,7.8 70.1,7.8 69.1,8.8 L45.1,32.8 L40.9,28.6 C40.4,28.1 39.8,27.9 39.2,27.9 C38.6,27.9 37.9,28.2 37.5,28.6 L25.6,40.6 L21.4,36.4 C20.9,35.9 20.3,35.7 19.7,35.7 C19.1,35.7 18.4,36 18,36.4 L5.4,48.9 L5.4,3.2 C5.4,1.9 4.3,0.8 3,0.8 C1.7,0.8 0.6,1.9 0.6,3.2 L0.6,54.8 C0.6,56.1 1.7,57.2 3,57.2 L83,57.2 C84.3,57.2 85.4,56.1 85.4,54.8 C85.5,53.5 84.4,52.4 83,52.4 Z" id="Shape"></path>
        </g>
    </g>
</svg>
